{
  "asset": {
    "version": "2.0",
    "generator": "THREE.GLTFExporter r174"
  },
  "scenes": [
    {
      "name": "AuxScene",
      "nodes": [
        20
      ]
    }
  ],
  "scene": 0,
  "nodes": [
    {
      "translation": [
        -63.61500358581543,
        -62.60850143432617,
        -5
      ],
      "mesh": 0
    },
    {
      "children": [
        0
      ]
    },
    {
      "translation": [
        -63.61500358581543,
        -62.60850143432617,
        -5
      ],
      "scale": [
        1.01,
        1.01,
        1.06
      ],
      "mesh": 1
    },
    {
      "children": [
        2
      ]
    },
    {
      "translation": [
        -63.61500358581543,
        -62.60850143432617,
        -5
      ],
      "scale": [
        1.01,
        1.01,
        1.06
      ],
      "mesh": 2
    },
    {
      "children": [
        4
      ]
    },
    {
      "translation": [
        -63.61500358581543,
        -62.60850143432617,
        -5
      ],
      "scale": [
        1.01,
        1.01,
        1.06
      ],
      "mesh": 3
    },
    {
      "children": [
        6
      ]
    },
    {
      "translation": [
        -63.61500358581543,
        -62.60850143432617,
        -5
      ],
      "scale": [
        1.01,
        1.01,
        1.06
      ],
      "mesh": 4
    },
    {
      "children": [
        8
      ]
    },
    {
      "translation": [
        -63.61500358581543,
        -62.60850143432617,
        -5
      ],
      "scale": [
        1.01,
        1.01,
        1.06
      ],
      "mesh": 5
    },
    {
      "children": [
        10
      ]
    },
    {
      "translation": [
        -63.61500358581543,
        -62.60850143432617,
        -5
      ],
      "scale": [
        1.01,
        1.01,
        1.06
      ],
      "mesh": 6
    },
    {
      "children": [
        12
      ]
    },
    {
      "translation": [
        -63.61500358581543,
        -62.60850143432617,
        -5
      ],
      "scale": [
        1.01,
        1.01,
        1.06
      ],
      "mesh": 7
    },
    {
      "children": [
        14
      ]
    },
    {
      "rotation": [
        0,
        0.3826834323650898,
        0,
        0.9238795325112867
      ],
      "scale": [
        0.7664068547429087,
        -0.7664068547429087,
        0.7664068547429087
      ],
      "children": [
        1,
        3,
        5,
        7,
        9,
        11,
        13,
        15
      ]
    },
    {
      "children": [
        16
      ]
    },
    {
      "translation": [
        -20.448157980583836,
        14.783987467852072,
        20.44815785137731
      ],
      "children": [
        17
      ]
    },
    {
      "children": [
        18
      ]
    },
    {
      "children": [
        19
      ]
    }
  ],
  "bufferViews": [
    {
      "buffer": 0,
      "byteOffset": 0,
      "byteLength": 42624,
      "target": 34962,
      "byteStride": 12
    },
    {
      "buffer": 0,
      "byteOffset": 42624,
      "byteLength": 28416,
      "target": 34962,
      "byteStride": 8
    },
    {
      "buffer": 0,
      "byteOffset": 71040,
      "byteLength": 42624,
      "target": 34962,
      "byteStride": 12
    },
    {
      "buffer": 0,
      "byteOffset": 113664,
      "byteLength": 41328,
      "target": 34962,
      "byteStride": 12
    },
    {
      "buffer": 0,
      "byteOffset": 154992,
      "byteLength": 27552,
      "target": 34962,
      "byteStride": 8
    },
    {
      "buffer": 0,
      "byteOffset": 182544,
      "byteLength": 41328,
      "target": 34962,
      "byteStride": 12
    },
    {
      "buffer": 0,
      "byteOffset": 223872,
      "byteLength": 41328,
      "target": 34962,
      "byteStride": 12
    },
    {
      "buffer": 0,
      "byteOffset": 265200,
      "byteLength": 27552,
      "target": 34962,
      "byteStride": 8
    },
    {
      "buffer": 0,
      "byteOffset": 292752,
      "byteLength": 41328,
      "target": 34962,
      "byteStride": 12
    },
    {
      "buffer": 0,
      "byteOffset": 334080,
      "byteLength": 41328,
      "target": 34962,
      "byteStride": 12
    },
    {
      "buffer": 0,
      "byteOffset": 375408,
      "byteLength": 27552,
      "target": 34962,
      "byteStride": 8
    },
    {
      "buffer": 0,
      "byteOffset": 402960,
      "byteLength": 41328,
      "target": 34962,
      "byteStride": 12
    },
    {
      "buffer": 0,
      "byteOffset": 444288,
      "byteLength": 23184,
      "target": 34962,
      "byteStride": 12
    },
    {
      "buffer": 0,
      "byteOffset": 467472,
      "byteLength": 15456,
      "target": 34962,
      "byteStride": 8
    },
    {
      "buffer": 0,
      "byteOffset": 482928,
      "byteLength": 23184,
      "target": 34962,
      "byteStride": 12
    },
    {
      "buffer": 0,
      "byteOffset": 506112,
      "byteLength": 23184,
      "target": 34962,
      "byteStride": 12
    },
    {
      "buffer": 0,
      "byteOffset": 529296,
      "byteLength": 15456,
      "target": 34962,
      "byteStride": 8
    },
    {
      "buffer": 0,
      "byteOffset": 544752,
      "byteLength": 23184,
      "target": 34962,
      "byteStride": 12
    },
    {
      "buffer": 0,
      "byteOffset": 567936,
      "byteLength": 23184,
      "target": 34962,
      "byteStride": 12
    },
    {
      "buffer": 0,
      "byteOffset": 591120,
      "byteLength": 15456,
      "target": 34962,
      "byteStride": 8
    },
    {
      "buffer": 0,
      "byteOffset": 606576,
      "byteLength": 23184,
      "target": 34962,
      "byteStride": 12
    },
    {
      "buffer": 0,
      "byteOffset": 629760,
      "byteLength": 23184,
      "target": 34962,
      "byteStride": 12
    },
    {
      "buffer": 0,
      "byteOffset": 652944,
      "byteLength": 15456,
      "target": 34962,
      "byteStride": 8
    },
    {
      "buffer": 0,
      "byteOffset": 668400,
      "byteLength": 23184,
      "target": 34962,
      "byteStride": 12
    }
  ],
  "buffers": [
    {
      "byteLength": 691584,
      "uri": "data:application/octet-stream;base64,"
    }
  ],
  "accessors": [
    {
      "bufferView": 0,
      "componentType": 5126,
      "count": 3552,
      "max": [
        86.44999694824219,
        41.77083969116211,
        12
      ],
      "min": [
        64.44515991210938,
        19.76116180419922,
        -2
      ],
      "type": "VEC3"
    },
    {
      "bufferView": 1,
      "componentType": 5126,
      "count": 3552,
      "max": [
        85.44999694824219,
        40.76599884033203
      ],
      "min": [
        22.984403610229492,
        -11
      ],
      "type": "VEC2"
    },
    {
      "bufferView": 2,
      "componentType": 5126,
      "count": 3552,
      "max": [
        1,
        0.9951846599578857,
        1
      ],
      "min": [
        -0.9951846599578857,
        -0.9951847791671753,
        -1
      ],
      "type": "VEC3"
    },
    {
      "bufferView": 3,
      "componentType": 5126,
      "count": 3444,
      "max": [
        163.27883911132812,
        68.18883514404297,
        12
      ],
      "min": [
        141.2691650390625,
        46.179161071777344,
        -2
      ],
      "type": "VEC3"
    },
    {
      "bufferView": 4,
      "componentType": 5126,
      "count": 3444,
      "max": [
        162.2740020751953,
        67.18399810791016
      ],
      "min": [
        49.40240478515625,
        -11
      ],
      "type": "VEC2"
    },
    {
      "bufferView": 5,
      "componentType": 5126,
      "count": 3444,
      "max": [
        0.9951846599578857,
        0.9951850175857544,
        1
      ],
      "min": [
        -0.9951846599578857,
        -0.9951846599578857,
        -1
      ],
      "type": "VEC3"
    },
    {
      "bufferView": 6,
      "componentType": 5126,
      "count": 3444,
      "max": [
        60.66383743286133,
        117.64683532714844,
        12
      ],
      "min": [
        38.65415954589844,
        95.63716125488281,
        -2
      ],
      "type": "VEC3"
    },
    {
      "bufferView": 7,
      "componentType": 5126,
      "count": 3444,
      "max": [
        114.42359924316406,
        116.64199829101562
      ],
      "min": [
        39.659000396728516,
        -11
      ],
      "type": "VEC2"
    },
    {
      "bufferView": 8,
      "componentType": 5126,
      "count": 3444,
      "max": [
        0.9951848387718201,
        0.9951850175857544,
        1
      ],
      "min": [
        -0.9951846599578857,
        -0.9951846599578857,
        -1
      ],
      "type": "VEC3"
    },
    {
      "bufferView": 9,
      "componentType": 5126,
      "count": 3444,
      "max": [
        138.24583435058594,
        143.1888427734375,
        12
      ],
      "min": [
        116.23616027832031,
        121.17916107177734,
        -2
      ],
      "type": "VEC3"
    },
    {
      "bufferView": 10,
      "componentType": 5126,
      "count": 3444,
      "max": [
        139.96559143066406,
        142.1840057373047
      ],
      "min": [
        117.24099731445312,
        -11
      ],
      "type": "VEC2"
    },
    {
      "bufferView": 11,
      "componentType": 5126,
      "count": 3444,
      "max": [
        0.9951846599578857,
        0.9951846599578857,
        1
      ],
      "min": [
        -0.9951846599578857,
        -0.9951846599578857,
        -1
      ],
      "type": "VEC3"
    },
    {
      "bufferView": 12,
      "componentType": 5126,
      "count": 1932,
      "max": [
        88.73200225830078,
        95.64900207519531,
        12
      ],
      "min": [
        36.70709228515625,
        43.62409210205078,
        -2
      ],
      "type": "VEC3"
    },
    {
      "bufferView": 13,
      "componentType": 5126,
      "count": 1932,
      "max": [
        95.64900207519531,
        94.64900207519531
      ],
      "min": [
        36.70709228515625,
        -11
      ],
      "type": "VEC2"
    },
    {
      "bufferView": 14,
      "componentType": 5126,
      "count": 1932,
      "max": [
        0.9999998807907104,
        0.9999998807907104,
        1
      ],
      "min": [
        -0.9989269375801086,
        -0.9989269375801086,
        -1
      ],
      "type": "VEC3"
    },
    {
      "bufferView": 15,
      "componentType": 5126,
      "count": 1932,
      "max": [
        138.79190063476562,
        70.29000091552734,
        12
      ],
      "min": [
        86.76699829101562,
        18.265094757080078,
        -2
      ],
      "type": "VEC3"
    },
    {
      "bufferView": 16,
      "componentType": 5126,
      "count": 1932,
      "max": [
        138.79190063476562,
        69.29000091552734
      ],
      "min": [
        18.265094757080078,
        -11
      ],
      "type": "VEC2"
    },
    {
      "bufferView": 17,
      "componentType": 5126,
      "count": 1932,
      "max": [
        0.9989270567893982,
        0.9999998807907104,
        1
      ],
      "min": [
        -0.9999998807907104,
        -0.9989270567893982,
        -1
      ],
      "type": "VEC3"
    },
    {
      "bufferView": 18,
      "componentType": 5126,
      "count": 1932,
      "max": [
        165.98690795898438,
        120.3539047241211,
        12
      ],
      "min": [
        113.96199798583984,
        68.3290023803711,
        -2
      ],
      "type": "VEC3"
    },
    {
      "bufferView": 19,
      "componentType": 5126,
      "count": 1932,
      "max": [
        165.98690795898438,
        119.3290023803711
      ],
      "min": [
        68.3290023803711,
        -11
      ],
      "type": "VEC2"
    },
    {
      "bufferView": 20,
      "componentType": 5126,
      "count": 1932,
      "max": [
        0.9989269375801086,
        0.9989269971847534,
        1
      ],
      "min": [
        -0.9999998807907104,
        -0.9999998807907104,
        -1
      ],
      "type": "VEC3"
    },
    {
      "bufferView": 21,
      "componentType": 5126,
      "count": 1932,
      "max": [
        115.9800033569336,
        145.5319061279297,
        12
      ],
      "min": [
        63.95509338378906,
        93.50700378417969,
        -2
      ],
      "type": "VEC3"
    },
    {
      "bufferView": 22,
      "componentType": 5126,
      "count": 1932,
      "max": [
        145.5319061279297,
        144.5070037841797
      ],
      "min": [
        63.95509338378906,
        -11
      ],
      "type": "VEC2"
    },
    {
      "bufferView": 23,
      "componentType": 5126,
      "count": 1932,
      "max": [
        0.9999998807907104,
        0.9989269375801086,
        1
      ],
      "min": [
        -0.9989269375801086,
        -0.9999998807907104,
        -1
      ],
      "type": "VEC3"
    }
  ],
  "materials": [
    {
      "pbrMetallicRoughness": {
        "baseColorFactor": [
          0,
          0.028426039499072558,
          0.1499597898006365,
          1
        ],
        "metallicFactor": 0,
        "roughnessFactor": 1
      },
      "doubleSided": true,
      "extras": {
        "originalProperties": {
          "color": 12140,
          "roughness": 1,
          "metalness": 0,
          "clearcoat": 0.05,
          "clearcoatRoughness": 0.05,
          "transmission": 0,
          "ior": 2.3333333333333335,
          "opacity": 1,
          "sheen": 0,
          "sheenRoughness": 1
        },
        "isHole": false
      },
      "extensions": {
        "KHR_materials_ior": {
          "ior": 2.3333333333333335
        },
        "KHR_materials_clearcoat": {
          "clearcoatFactor": 0.05,
          "clearcoatRoughnessFactor": 0.05
        }
      }
    },
    {
      "pbrMetallicRoughness": {
        "baseColorFactor": [
          0,
          0.46207699964472876,
          0.5775804404214573,
          1
        ],
        "metallicFactor": 0,
        "roughnessFactor": 1
      },
      "alphaMode": "BLEND",
      "doubleSided": true,
      "extras": {
        "originalProperties": {
          "color": 46536,
          "roughness": 1,
          "metalness": 0,
          "clearcoat": 0.05,
          "clearcoatRoughness": 0.05,
          "transmission": 0,
          "ior": 2.3333333333333335,
          "opacity": 1,
          "sheen": 0,
          "sheenRoughness": 1
        },
        "isHole": true
      },
      "extensions": {
        "KHR_materials_ior": {
          "ior": 2.3333333333333335
        },
        "KHR_materials_clearcoat": {
          "clearcoatFactor": 0.05,
          "clearcoatRoughnessFactor": 0.05
        }
      }
    },
    {
      "pbrMetallicRoughness": {
        "baseColorFactor": [
          0,
          0.46207699964472876,
          0.5775804404214573,
          1
        ],
        "metallicFactor": 0,
        "roughnessFactor": 1
      },
      "alphaMode": "BLEND",
      "doubleSided": true,
      "extras": {
        "originalProperties": {
          "color": 46536,
          "roughness": 1,
          "metalness": 0,
          "clearcoat": 0.05,
          "clearcoatRoughness": 0.05,
          "transmission": 0,
          "ior": 2.3333333333333335,
          "opacity": 1,
          "sheen": 0,
          "sheenRoughness": 1
        },
        "isHole": true
      },
      "extensions": {
        "KHR_materials_ior": {
          "ior": 2.3333333333333335
        },
        "KHR_materials_clearcoat": {
          "clearcoatFactor": 0.05,
          "clearcoatRoughnessFactor": 0.05
        }
      }
    },
    {
      "pbrMetallicRoughness": {
        "baseColorFactor": [
          0,
          0.028426039499072558,
          0.1499597898006365,
          1
        ],
        "metallicFactor": 0,
        "roughnessFactor": 1
      },
      "alphaMode": "BLEND",
      "doubleSided": true,
      "extras": {
        "originalProperties": {
          "color": 12140,
          "roughness": 1,
          "metalness": 0,
          "clearcoat": 0.05,
          "clearcoatRoughness": 0.05,
          "transmission": 0,
          "ior": 2.3333333333333335,
          "opacity": 1,
          "sheen": 0,
          "sheenRoughness": 1
        },
        "isHole": true
      },
      "extensions": {
        "KHR_materials_ior": {
          "ior": 2.3333333333333335
        },
        "KHR_materials_clearcoat": {
          "clearcoatFactor": 0.05,
          "clearcoatRoughnessFactor": 0.05
        }
      }
    },
    {
      "pbrMetallicRoughness": {
        "baseColorFactor": [
          0,
          0.028426039499072558,
          0.1499597898006365,
          1
        ],
        "metallicFactor": 0,
        "roughnessFactor": 1
      },
      "alphaMode": "BLEND",
      "doubleSided": true,
      "extras": {
        "originalProperties": {
          "color": 12140,
          "roughness": 1,
          "metalness": 0,
          "clearcoat": 0.05,
          "clearcoatRoughness": 0.05,
          "transmission": 0,
          "ior": 2.3333333333333335,
          "opacity": 1,
          "sheen": 0,
          "sheenRoughness": 1
        },
        "isHole": true
      },
      "extensions": {
        "KHR_materials_ior": {
          "ior": 2.3333333333333335
        },
        "KHR_materials_clearcoat": {
          "clearcoatFactor": 0.05,
          "clearcoatRoughnessFactor": 0.05
        }
      }
    },
    {
      "pbrMetallicRoughness": {
        "baseColorFactor": [
          0,
          0.46207699964472876,
          0.5775804404214573,
          1
        ],
        "metallicFactor": 0,
        "roughnessFactor": 1
      },
      "alphaMode": "BLEND",
      "doubleSided": true,
      "extras": {
        "originalProperties": {
          "color": 46536,
          "roughness": 1,
          "metalness": 0,
          "clearcoat": 0.05,
          "clearcoatRoughness": 0.05,
          "transmission": 0,
          "ior": 2.3333333333333335,
          "opacity": 1,
          "sheen": 0,
          "sheenRoughness": 1
        },
        "isHole": true
      },
      "extensions": {
        "KHR_materials_ior": {
          "ior": 2.3333333333333335
        },
        "KHR_materials_clearcoat": {
          "clearcoatFactor": 0.05,
          "clearcoatRoughnessFactor": 0.05
        }
      }
    },
    {
      "pbrMetallicRoughness": {
        "baseColorFactor": [
          0,
          0.028426039499072558,
          0.1499597898006365,
          1
        ],
        "metallicFactor": 0,
        "roughnessFactor": 1
      },
      "alphaMode": "BLEND",
      "doubleSided": true,
      "extras": {
        "originalProperties": {
          "color": 12140,
          "roughness": 1,
          "metalness": 0,
          "clearcoat": 0.05,
          "clearcoatRoughness": 0.05,
          "transmission": 0,
          "ior": 2.3333333333333335,
          "opacity": 1,
          "sheen": 0,
          "sheenRoughness": 1
        },
        "isHole": true
      },
      "extensions": {
        "KHR_materials_ior": {
          "ior": 2.3333333333333335
        },
        "KHR_materials_clearcoat": {
          "clearcoatFactor": 0.05,
          "clearcoatRoughnessFactor": 0.05
        }
      }
    },
    {
      "pbrMetallicRoughness": {
        "baseColorFactor": [
          0,
          0.46207699964472876,
          0.5775804404214573,
          1
        ],
        "metallicFactor": 0,
        "roughnessFactor": 1
      },
      "alphaMode": "BLEND",
      "doubleSided": true,
      "extras": {
        "originalProperties": {
          "color": 46536,
          "roughness": 1,
          "metalness": 0,
          "clearcoat": 0.05,
          "clearcoatRoughness": 0.05,
          "transmission": 0,
          "ior": 2.3333333333333335,
          "opacity": 1,
          "sheen": 0,
          "sheenRoughness": 1
        },
        "isHole": true
      },
      "extensions": {
        "KHR_materials_ior": {
          "ior": 2.3333333333333335
        },
        "KHR_materials_clearcoat": {
          "clearcoatFactor": 0.05,
          "clearcoatRoughnessFactor": 0.05
        }
      }
    }
  ],
  "meshes": [
    {
      "primitives": [
        {
          "mode": 4,
          "attributes": {
            "POSITION": 0,
            "TEXCOORD_0": 1,
            "NORMAL": 2
          },
          "material": 0
        }
      ]
    },
    {
      "primitives": [
        {
          "mode": 4,
          "attributes": {
            "POSITION": 3,
            "TEXCOORD_0": 4,
            "NORMAL": 5
          },
          "material": 1
        }
      ]
    },
    {
      "primitives": [
        {
          "mode": 4,
          "attributes": {
            "POSITION": 6,
            "TEXCOORD_0": 7,
            "NORMAL": 8
          },
          "material": 2
        }
      ]
    },
    {
      "primitives": [
        {
          "mode": 4,
          "attributes": {
            "POSITION": 9,
            "TEXCOORD_0": 10,
            "NORMAL": 11
          },
          "material": 3
        }
      ]
    },
    {
      "primitives": [
        {
          "mode": 4,
          "attributes": {
            "POSITION": 12,
            "TEXCOORD_0": 13,
            "NORMAL": 14
          },
          "material": 4
        }
      ]
    },
    {
      "primitives": [
        {
          "mode": 4,
          "attributes": {
            "POSITION": 15,
            "TEXCOORD_0": 16,
            "NORMAL": 17
          },
          "material": 5
        }
      ]
    },
    {
      "primitives": [
        {
          "mode": 4,
          "attributes": {
            "POSITION": 18,
            "TEXCOORD_0": 19,
            "NORMAL": 20
          },
          "material": 6
        }
      ]
    },
    {
      "primitives": [
        {
          "mode": 4,
          "attributes": {
            "POSITION": 21,
            "TEXCOORD_0": 22,
            "NORMAL": 23
          },
          "material": 7
        }
      ]
    }
  ],
  "extensionsUsed": [
    "KHR_materials_ior",
    "KHR_materials_clearcoat"
  ]
}